<?xml version="1.0" encoding="UTF-8" standalone="no"?><!DOCTYPE svg PUBLIC "-//W3C//DTD SVG 1.1//EN" "http://www.w3.org/Graphics/SVG/1.1/DTD/svg11.dtd"><svg width="100%" height="100%" viewBox="0 0 120 30" version="1.1" xmlns="http://www.w3.org/2000/svg" xmlns:xlink="http://www.w3.org/1999/xlink" xml:space="preserve" xmlns:serif="http://www.serif.com/" style="fill-rule:evenodd;clip-rule:evenodd;stroke-linejoin:round;stroke-miterlimit:2;"><path d="M7.887,23.6c-2.433,-0 -4.275,-0.7 -5.525,-2.1c-1.25,-1.4 -1.875,-3.208 -1.875,-5.425c0,-1.883 0.417,-3.633 1.25,-5.25c0.484,-0.95 1.092,-1.783 1.825,-2.5c0.734,-0.717 1.725,-1.308 2.975,-1.775c1.25,-0.467 2.667,-0.7 4.25,-0.7c0.534,-0 1.009,0.05 1.425,0.15c0.417,0.1 0.625,0.167 0.625,0.2c0,0.8 -0.054,1.712 -0.162,2.738c-0.108,1.025 -0.171,1.545 -0.188,1.562c-0.083,0.083 -0.429,0.217 -1.037,0.4c-0.608,0.183 -1.063,0.275 -1.363,0.275l0,-0.15c0,-0.75 -0.108,-1.275 -0.325,-1.575c-0.216,-0.3 -0.591,-0.45 -1.125,-0.45c-1.183,-0 -2.283,0.621 -3.3,1.862c-1.016,1.242 -1.525,2.946 -1.525,5.113c0,1.15 0.284,2.183 0.85,3.1c0.3,0.483 0.738,0.875 1.313,1.175c0.575,0.3 1.254,0.45 2.037,0.45c1.567,-0 3.092,-0.725 4.575,-2.175c0.067,-0 0.205,0.104 0.413,0.312c0.208,0.209 0.412,0.488 0.612,0.838c0.417,0.667 0.625,1.075 0.625,1.225c0,0.15 -0.258,0.429 -0.775,0.837c-0.516,0.409 -1.3,0.821 -2.35,1.238c-1.05,0.417 -2.125,0.625 -3.225,0.625Z" style="fill-rule:nonzero;"/><path d="M20.412,21.875l-0.025,-0.525l-0.025,-0.05c-0.4,0.617 -0.904,1.108 -1.512,1.475c-0.608,0.367 -1.204,0.55 -1.788,0.55c-1.75,-0 -2.75,-1.358 -3,-4.075c-0.033,-0.433 -0.05,-1.55 -0.05,-3.35c0,-1.8 0.075,-2.867 0.225,-3.2c0.434,-0.35 1.134,-0.525 2.1,-0.525c0.384,-0 0.617,0.042 0.7,0.125c0,0.017 -0.008,0.242 -0.025,0.675c-0.083,1.267 -0.125,2.242 -0.125,2.925c0,0.683 0.009,1.187 0.025,1.512c0.017,0.325 0.03,0.534 0.038,0.625c0.008,0.092 0.033,0.255 0.075,0.488c0.042,0.233 0.104,0.433 0.187,0.6c0.25,0.483 0.638,0.725 1.163,0.725c0.525,-0 0.992,-0.263 1.4,-0.788c0.408,-0.525 0.604,-0.895 0.587,-1.112l0,-0.85c0,-3.05 0.05,-4.692 0.15,-4.925c0.084,-0.15 0.346,-0.308 0.788,-0.475c0.442,-0.167 0.879,-0.25 1.313,-0.25c0.433,-0 0.683,0.033 0.75,0.1l-0.051,1.175c-0.1,2.383 -0.15,4.225 -0.15,5.525c0,1.3 0.034,2.125 0.1,2.475c0.117,0.833 0.342,1.5 0.675,2c0,0.167 -0.341,0.433 -1.025,0.8c-0.683,0.367 -1.266,0.55 -1.75,0.55c-0.133,-0 -0.283,-0.25 -0.45,-0.75c-0.166,-0.5 -0.266,-0.983 -0.3,-1.45Z" style="fill-rule:nonzero;"/><path d="M27.487,6.45c-0.033,0.383 -0.075,1.433 -0.125,3.15c1.25,-0 1.875,0.025 1.875,0.075c0,0.567 -0.083,1.071 -0.25,1.512c-0.166,0.442 -0.325,0.663 -0.475,0.663l-1.175,0c-0.033,2.467 -0.05,4.471 -0.05,6.012c0,1.542 0.025,2.571 0.075,3.088c0.1,0.867 0.442,1.575 1.025,2.125c0,0.183 -0.32,0.45 -0.962,0.8c-0.642,0.35 -1.246,0.525 -1.813,0.525c-0.05,-0 -0.145,-0.083 -0.287,-0.25c-0.142,-0.167 -0.292,-0.442 -0.45,-0.825c-0.158,-0.383 -0.258,-0.758 -0.3,-1.125c-0.042,-0.367 -0.063,-1.675 -0.063,-3.925c0,-2.25 0.025,-4.375 0.075,-6.375l-1.4,0.025c-0.083,-0.083 -0.125,-0.446 -0.125,-1.088c0,-0.641 0.075,-1.029 0.225,-1.162c0.367,-0.017 0.809,-0.033 1.325,-0.05c0,-0.967 -0.025,-1.592 -0.075,-1.875c-0.05,-0.283 -0.075,-0.45 -0.075,-0.5c0,-0.167 0.288,-0.358 0.863,-0.575c0.575,-0.217 1.079,-0.325 1.512,-0.325c0.434,-0 0.65,0.033 0.65,0.1Z" style="fill-rule:nonzero;"/><path d="M30.275,7.9c0.458,0 0.829,0.15 1.112,0.45c0.284,0.3 0.425,0.692 0.425,1.175c0,0.483 -0.187,0.896 -0.562,1.237c-0.375,0.342 -0.792,0.513 -1.25,0.513c-0.458,-0 -0.825,-0.146 -1.1,-0.438c-0.275,-0.291 -0.413,-0.679 -0.413,-1.162c0,-0.483 0.184,-0.9 0.55,-1.25c0.367,-0.35 0.78,-0.525 1.238,-0.525Zm1.262,6.225l-0.05,4.05c0,1.3 0.038,2.254 0.113,2.862c0.075,0.609 0.287,1.18 0.637,1.713c0.001,0.167 -0.341,0.433 -1.024,0.8c-0.684,0.367 -1.267,0.55 -1.75,0.55c-0.15,-0 -0.3,-0.25 -0.45,-0.75c-0.15,-0.5 -0.246,-0.975 -0.288,-1.425c-0.042,-0.45 -0.062,-1.967 -0.062,-4.55c-0,-2.583 0.058,-3.992 0.175,-4.225c0.383,-0.3 1.058,-0.45 2.025,-0.45c0.383,-0 0.616,0.05 0.7,0.15l-0.025,1.275Z" style="fill-rule:nonzero;"/><path d="M38.387,14.875c0,-0.483 -0.258,-0.725 -0.775,-0.725c-0.683,0 -1.283,0.35 -1.8,1.05c-0.516,0.7 -0.775,1.542 -0.775,2.525c0,0.233 0.034,0.35 0.1,0.35c0.6,-0.017 1.292,-0.363 2.075,-1.038c0.784,-0.675 1.175,-1.395 1.175,-2.162Zm2.175,7.95c-0.566,0.383 -1.675,0.575 -3.325,0.575c-1.65,-0 -2.916,-0.492 -3.8,-1.475c-0.883,-0.983 -1.325,-2.296 -1.325,-3.938c0,-1.641 0.53,-3.066 1.588,-4.275c1.058,-1.208 2.546,-1.812 4.462,-1.812c0.784,-0 1.505,0.208 2.163,0.625c0.658,0.417 0.987,1.146 0.987,2.187c0,1.042 -0.454,2.071 -1.362,3.088c-0.908,1.017 -2.146,1.792 -3.713,2.325c0,0.2 0.205,0.363 0.613,0.488c0.408,0.125 0.812,0.187 1.212,0.187c1.267,0 2.267,-0.225 3,-0.675c0.017,-0.017 0.042,-0.025 0.075,-0.025c0.034,-0 0.05,0.158 0.05,0.475c0,0.967 -0.208,1.717 -0.625,2.25Z" style="fill-rule:nonzero;"/><path d="M41.887,19.725l-0.075,-5.875c0.001,-1.067 0.042,-1.642 0.126,-1.725c0.2,-0.183 0.508,-0.354 0.925,-0.513c0.416,-0.158 0.816,-0.237 1.2,-0.237c0.383,-0 0.575,0.033 0.575,0.1c-0.067,0.733 -0.1,1.292 -0.1,1.675c-0,0.383 0.016,0.575 0.05,0.575c0.033,-0 0.083,-0.038 0.15,-0.113c0.066,-0.075 0.187,-0.191 0.362,-0.35c0.175,-0.158 0.5,-0.375 0.975,-0.65c0.475,-0.275 0.913,-0.412 1.313,-0.412c1.083,-0 1.899,0.483 2.45,1.45c0.949,-1.333 1.999,-2 3.149,-2c1.034,-0 1.775,0.442 2.225,1.325c0.467,0.983 0.742,1.967 0.825,2.95c0.1,1.433 0.15,2.917 0.15,4.45l-0.1,2.925c0,0.117 -0.275,0.229 -0.825,0.337c-0.55,0.109 -0.991,0.163 -1.325,0.163l-0.799,-0.125c0.183,-1.65 0.275,-2.983 0.275,-4c-0,-1.017 -0.013,-1.746 -0.038,-2.188c-0.025,-0.441 -0.087,-0.883 -0.188,-1.325c-0.099,-0.441 -0.254,-0.758 -0.462,-0.95c-0.208,-0.191 -0.471,-0.287 -0.787,-0.287c-0.317,-0 -0.6,0.087 -0.85,0.262c-0.25,0.175 -0.43,0.346 -0.538,0.513c-0.108,0.167 -0.162,0.275 -0.162,0.325c0.05,0.533 0.075,1.767 0.075,3.7l-0.101,1.975c0,0.133 -0.266,0.25 -0.8,0.35c-0.533,0.1 -0.966,0.15 -1.3,0.15l-0.8,-0.125c0.15,-1.35 0.225,-2.613 0.225,-3.788c0,-1.175 -0.062,-2 -0.187,-2.475c-0.125,-0.475 -0.454,-0.712 -0.988,-0.712c-0.533,-0 -0.983,0.267 -1.35,0.8c-0.366,0.533 -0.55,0.942 -0.55,1.225l0,0.525l0.025,2.65c0,1.633 -0.033,2.492 -0.1,2.575c-0.416,0.4 -1.291,0.6 -2.625,0.6c-0.133,-0 -0.2,-0.025 -0.2,-0.075c0.117,-0.717 0.175,-1.942 0.175,-3.675Z" style="fill-rule:nonzero;"/><path d="M65.988,17.25c-0.001,2.083 0.025,3.3 0.075,3.65c0.133,0.917 0.416,1.575 0.849,1.975c0,0.183 -0.329,0.458 -0.987,0.825c-0.658,0.367 -1.254,0.55 -1.788,0.55c-0.15,-0 -0.308,-0.221 -0.475,-0.663c-0.166,-0.441 -0.262,-0.77 -0.287,-0.987c-0.025,-0.217 -0.046,-0.325 -0.063,-0.325l-0.075,0.05c-0.883,0.7 -1.916,1.05 -3.1,1.05c-1.183,-0 -2.095,-0.288 -2.737,-0.863c-0.642,-0.575 -0.963,-1.329 -0.963,-2.262c0,-0.933 0.205,-1.721 0.613,-2.363c0.408,-0.641 0.887,-1.129 1.437,-1.462c0.55,-0.333 1.159,-0.6 1.825,-0.8c1.017,-0.333 1.817,-0.5 2.4,-0.5l0.05,-0.025c0.001,-0.817 -1.033,-1.225 -3.099,-1.225c-0.817,-0 -1.425,0.033 -1.825,0.1l-0.025,-0c-0,-0.333 0.104,-0.75 0.312,-1.25c0.208,-0.5 0.383,-0.825 0.525,-0.975c0.142,-0.15 0.738,-0.225 1.788,-0.225c1.9,-0 3.3,0.362 4.2,1.087c0.9,0.725 1.35,1.846 1.35,3.363l-0,1.275Zm-2.775,1.6l-0,-0.95c-0,-0.367 -0.009,-0.55 -0.025,-0.55c-1.117,-0 -2.084,0.292 -2.9,0.875c-0.517,0.367 -0.775,0.825 -0.775,1.375c-0,0.35 0.125,0.642 0.375,0.875c0.25,0.233 0.629,0.35 1.137,0.35c0.508,-0 1,-0.15 1.475,-0.45c0.475,-0.3 0.713,-0.808 0.713,-1.525Z" style="fill-rule:nonzero;"/><path d="M67.213,19.45l-0.05,-5.675c-0.001,-0.983 0.033,-1.508 0.099,-1.575c0.184,-0.183 0.5,-0.346 0.95,-0.488c0.45,-0.141 0.871,-0.212 1.263,-0.212c0.392,-0 0.587,0.042 0.587,0.125c-0.05,0.45 -0.075,0.963 -0.075,1.537c0,0.575 0.017,0.863 0.05,0.863c0.034,0 0.067,-0.021 0.1,-0.062c0.034,-0.042 0.088,-0.109 0.163,-0.2c0.075,-0.092 0.233,-0.255 0.475,-0.488c0.242,-0.233 0.504,-0.433 0.788,-0.6c0.716,-0.467 1.483,-0.7 2.3,-0.7c0.133,0.217 0.2,0.55 0.2,1c-0,0.95 -0.117,1.625 -0.35,2.025l-0.1,0.2l-0.326,-0.05c-1.2,-0 -2.141,0.492 -2.825,1.475c-0.266,0.4 -0.4,0.7 -0.4,0.9l0.001,2.2c-0.001,2 -0.026,3.025 -0.076,3.075c-0.466,0.45 -1.383,0.675 -2.75,0.675c-0.133,-0 -0.2,-0.025 -0.2,-0.075c0.117,-0.65 0.175,-1.967 0.175,-3.95Z" style="fill-rule:nonzero;"/><path d="M83.638,21.425c-0.001,0.317 -0.292,0.787 -0.876,1.412c-0.583,0.625 -1.025,0.938 -1.325,0.938c-0.483,-0.2 -1.683,-1.567 -3.599,-4.1c-1.35,2.25 -2.184,3.75 -2.5,4.5c-0.417,-0 -0.896,-0.204 -1.438,-0.613c-0.542,-0.408 -0.879,-0.762 -1.012,-1.062c-0,-0.317 1.066,-2.05 3.2,-5.2c-1.617,-2.25 -2.425,-3.5 -2.425,-3.75c0.1,-0.35 0.375,-0.742 0.825,-1.175c0.45,-0.433 0.858,-0.7 1.225,-0.8c0.133,0.383 0.833,1.475 2.1,3.275c1.616,-2.25 2.75,-3.617 3.4,-4.1c0.183,0 0.575,0.183 1.175,0.55c0.6,0.367 0.9,0.642 0.9,0.825c-1.134,1.15 -2.4,2.8 -3.8,4.95c1.799,2.333 3.183,3.783 4.15,4.35Z" style="fill-rule:nonzero;"/><path d="M105.363,5.675c-0,1.65 -0.317,3.904 -0.951,6.763c-0.633,2.858 -1.283,5.345 -1.95,7.462c-0.666,2.117 -1.1,3.271 -1.299,3.462c-0.2,0.192 -0.663,0.363 -1.388,0.513c-0.725,0.15 -1.279,0.225 -1.662,0.225c-0.384,-0 -0.575,-0.025 -0.575,-0.075c-0.034,-0.133 -0.192,-0.983 -0.475,-2.55c-0.834,-4.383 -1.309,-6.713 -1.425,-6.988c-0.117,-0.275 -0.192,-0.412 -0.225,-0.412l-0.125,0.15c-0.417,1.033 -0.888,2.646 -1.413,4.837c-0.525,2.192 -0.787,3.446 -0.787,3.763c-0,0.067 -0.159,0.158 -0.475,0.275c-0.867,0.317 -1.717,0.475 -2.55,0.475c-0.184,-0 -0.3,-0.025 -0.35,-0.075c-0.451,-0.45 -1.138,-2.904 -2.063,-7.363c-0.925,-4.458 -1.388,-7.595 -1.388,-9.412c0.001,-0.033 0.084,-0.1 0.251,-0.2c0.566,-0.283 1.187,-0.421 1.862,-0.413c0.675,0.009 1.013,0.03 1.013,0.063c0.116,2.167 0.362,4.446 0.737,6.837c0.375,2.392 0.737,4.03 1.088,4.913c0.033,0.117 0.07,0.175 0.112,0.175c0.042,-0 0.088,-0.058 0.138,-0.175c1.366,-5.283 2.2,-8.083 2.5,-8.4c0.6,-0.233 1.441,-0.35 2.525,-0.35c0.6,0.033 0.925,0.075 0.975,0.125c0.05,0.05 0.216,0.746 0.5,2.087c0.283,1.342 0.591,2.825 0.925,4.45c0.333,1.625 0.537,2.6 0.612,2.925c0.075,0.325 0.179,0.313 0.313,-0.037c0.283,-0.783 0.641,-2.208 1.075,-4.275c0.433,-2.067 0.65,-4.017 0.65,-5.85c-0,-0.183 -0.155,-0.363 -0.463,-0.538c-0.308,-0.175 -0.621,-0.279 -0.938,-0.312c-0.016,-0.05 -0.025,-0.154 -0.025,-0.313c0.001,-0.158 0.038,-0.391 0.113,-0.7c0.075,-0.308 0.138,-0.487 0.188,-0.537c1.516,-0.4 3.033,-0.6 4.55,-0.6c0.266,0.033 0.4,0.058 0.4,0.075Z" style="fill-rule:nonzero;"/><path d="M113.012,15.775l-1.525,0.075c-0.066,-0 -0.099,-0.108 -0.099,-0.325c-0,-0.217 0.075,-0.583 0.225,-1.1c0.15,-0.517 0.341,-0.892 0.575,-1.125c0.233,-0.233 2.2,-0.35 5.9,-0.35c0.95,-0 1.425,0.042 1.425,0.125c-0,0.383 -0.105,0.904 -0.313,1.562c-0.208,0.659 -0.387,1.096 -0.537,1.313c-0.017,4.483 -0.071,6.808 -0.163,6.975c-0.092,0.167 -0.396,0.354 -0.912,0.562c-0.517,0.209 -0.955,0.313 -1.313,0.313c-0.358,-0 -0.537,-0.025 -0.537,-0.075c-0,-0.9 -0.042,-1.442 -0.125,-1.625l-0.05,-0.05l-0.075,0.05c-0.984,0.983 -2.267,1.475 -3.85,1.475c-2.167,-0 -3.796,-0.7 -4.888,-2.1c-1.092,-1.4 -1.637,-3.208 -1.637,-5.425c-0,-1.867 0.341,-3.558 1.025,-5.075c0.433,-0.95 0.987,-1.775 1.662,-2.475c0.675,-0.7 1.608,-1.283 2.8,-1.75c1.192,-0.467 2.571,-0.7 4.138,-0.7c0.35,-0 0.833,0.042 1.45,0.125c0.616,0.083 0.945,0.15 0.987,0.2c0.042,0.05 0.063,0.233 0.063,0.55c-0,0.317 -0.042,0.75 -0.125,1.3c-0.084,0.55 -0.175,0.875 -0.275,0.975c-0.517,-0.267 -1.392,-0.4 -2.625,-0.4c-1.767,-0 -3.175,0.592 -4.225,1.775c-1.05,1.183 -1.575,2.917 -1.575,5.2c-0,1.467 0.3,2.642 0.9,3.525c0.6,0.883 1.441,1.325 2.525,1.325c1.083,0 1.962,-0.267 2.637,-0.8c0.675,-0.533 1.013,-0.983 1.013,-1.35l-0.001,-0.8c0.001,-1.017 -0.049,-1.575 -0.15,-1.675c-0.116,-0.15 -0.891,-0.225 -2.325,-0.225Z" style="fill-rule:nonzero;"/></svg>